<?xml version="1.0" encoding="UTF-8"?>
<!-- Uploaded to: SVG Repo, www.svgrepo.com, Generator: SVG Repo Mixer Tools -->
<svg width="800.01" height="217.89" fill="#000000" version="1.1" viewBox="0 0 99.371 27.065" xml:space="preserve" xmlns="http://www.w3.org/2000/svg">
<g transform="matrix(-1 0 0 1 99.369 -36.153)">
	
		<path d="m18.193 48.351c-4.106 0.166-7.299 3.622-7.133 7.727 0.014 0.316 0.049 0.627 0.102 0.934 0.608 3.645 3.84 6.354 7.624 6.199 3.892-0.155 6.958-3.271 7.13-7.09 8e-3 -0.21 0.015-0.423 6e-3 -0.635-0.165-4.106-3.626-7.301-7.729-7.135zm-0.529 2.848 0.083 2.137c-0.231 0.071-0.444 0.173-0.646 0.302l-1.575-1.452c0.607-0.501 1.331-0.845 2.138-0.987zm-3.007 1.931 1.576 1.455c-0.107 0.207-0.192 0.431-0.243 0.663l-2.135 0.087c0.077-0.814 0.356-1.565 0.802-2.205zm-0.761 3.49 2.151-0.085c0.072 0.227 0.17 0.439 0.296 0.637l-1.459 1.578c-0.491-0.601-0.841-1.329-0.988-2.13zm1.945 2.997 1.452-1.572c0.199 0.105 0.424 0.186 0.653 0.233l0.085 2.145c-0.806-0.081-1.553-0.369-2.19-0.806zm7.237-4.651-2.136 0.086c-0.068-0.23-0.17-0.443-0.297-0.644l1.456-1.578c0.494 0.605 0.834 1.331 0.977 2.136zm-4.128-3.819c0.817 0.08 1.565 0.363 2.205 0.812l-1.452 1.573c-0.206-0.114-0.431-0.198-0.667-0.249zm0.368 9.224-0.085-2.144c0.228-0.067 0.438-0.165 0.634-0.29l1.57 1.455c-0.599 0.491-1.318 0.836-2.119 0.979zm3.008-1.915-1.584-1.463c0.107-0.204 0.197-0.421 0.25-0.656l2.133-0.085c-0.082 0.811-0.353 1.568-0.799 2.204z"/>
		<path d="m75.478 46.602c-4.105 0.166-7.297 3.622-7.132 7.728 0.014 0.316 0.05 0.627 0.102 0.933 0.607 3.646 3.839 6.354 7.625 6.198 3.891-0.154 6.958-3.271 7.128-7.089 9e-3 -0.211 0.017-0.423 6e-3 -0.636-0.166-4.105-3.628-7.299-7.729-7.134zm-0.53 2.848 0.083 2.138c-0.229 0.07-0.444 0.172-0.644 0.301l-1.576-1.451c0.604-0.502 1.332-0.847 2.137-0.988zm-3.007 1.931 1.576 1.454c-0.108 0.209-0.192 0.432-0.243 0.665l-2.137 0.086c0.079-0.813 0.358-1.565 0.804-2.205zm-0.759 3.49 2.15-0.085c0.072 0.227 0.169 0.439 0.294 0.636l-1.457 1.578c-0.491-0.598-0.841-1.327-0.987-2.129zm1.942 2.997 1.452-1.572c0.201 0.107 0.424 0.185 0.653 0.233l0.086 2.145c-0.805-0.081-1.552-0.368-2.191-0.806zm7.238-4.652-2.137 0.086c-0.068-0.229-0.168-0.441-0.296-0.642l1.456-1.579c0.493 0.605 0.834 1.33 0.977 2.135zm-4.129-3.818c0.818 0.079 1.565 0.363 2.206 0.813l-1.452 1.572c-0.206-0.114-0.431-0.198-0.668-0.249zm0.371 9.224-0.086-2.145c0.229-0.067 0.438-0.163 0.634-0.288l1.57 1.454c-0.599 0.491-1.32 0.837-2.118 0.979zm3.005-1.915-1.584-1.462c0.108-0.205 0.197-0.422 0.25-0.657l2.134-0.085c-0.08 0.811-0.351 1.569-0.8 2.204z"/>
		<path d="m99.28 49.513c-0.129-0.231-0.377-0.374-0.643-0.366l-1.142 0.035s0.575-2.848 0.772-4.308c0.02-0.15-0.027-0.302-0.129-0.415-0.103-0.112-0.248-0.175-0.399-0.17-3.79 0.117-20.193-3.427-25.316-7.248-0.544-0.406-1.2-0.617-1.879-0.68-3.873-0.36-11.7-0.166-14.925-0.064-0.946 0.03-1.858 0.283-2.688 0.742 0 0-7.761 4.671-10.541 5.828-4.696 1.955-15.758 1.387-18.822 1.205-3.874-0.23-10.241-0.454-17.135 4.475 0 0-3.263 0.848-5.798 2.251-0.369 0.205-0.608 0.583-0.634 1.004s0.164 0.826 0.505 1.073c0.389 0.282 0.587 0.329 0.587 0.329l0.169 0.653c0.344 1.332 1.294 2.426 2.564 2.95l2.386 0.986c1.36 0.562 2.813 0.868 4.283 0.903-0.178-0.484-0.313-0.987-0.398-1.513-0.059-0.349-0.101-0.703-0.115-1.066-0.092-2.271 0.706-4.444 2.249-6.115 1.541-1.67 3.643-2.64 5.915-2.731 4.73-0.144 8.665 3.521 8.852 8.167 9e-3 0.241 2e-3 0.481-8e-3 0.723-0.046 1.022-0.284 2.003-0.667 2.904l2.003 0.048 40.982 0.44c-0.979-1.142-1.665-2.55-1.927-4.117-0.059-0.348-0.102-0.703-0.114-1.066-0.093-2.271 0.707-4.444 2.248-6.114 1.542-1.671 3.643-2.641 5.916-2.731 4.73-0.145 8.664 3.521 8.852 8.166 9e-3 0.241 1e-3 0.481-8e-3 0.722-0.038 0.861-0.211 1.689-0.492 2.469l8.059-0.246c0.196-6e-3 0.385-0.095 0.514-0.244l1.88-2.165 2.058-0.062c0.229-7e-3 0.442-0.124 0.569-0.315l2.389-3.598c0.145-0.223 0.157-0.508 0.028-0.739zm-34.063-7.161-0.185 0.038c-0.575 0.118-1.085 0.446-1.432 0.922-1.768 1.11-10.342 1.155-16.049 0.49l6.575-5.356c0.337-0.274 0.757-0.426 1.189-0.434l9.604-0.135c0.557-7e-3 1.016 0.433 1.031 0.988l0.076 2.46c0.016 0.496-0.325 0.929-0.809 1.027z"/>
	
</g>
</svg>
